<svg xmlns="http://www.w3.org/2000/svg" version="1.1" xmlns:xlink="http://www.w3.org/1999/xlink" xmlns:svgjs="http://svgjs.dev/svgjs" width="1900" height="1200" preserveAspectRatio="none" viewBox="0 0 1900 1200"><g mask="url(&quot;#SvgjsMask5795&quot;)" fill="none"><g transform="translate(0, 0)" stroke-linecap="round" stroke="url(&quot;#SvgjsLinearGradient5796&quot;)"><path d="M370 431.96 L370 768.04" stroke-width="43.5"></path><path d="M428 311.1 L428 888.9" stroke-width="43.5"></path><path d="M486 357.85 L486 842.15" stroke-width="43.5"></path><path d="M544 279.05 L544 920.95" stroke-width="43.5"></path><path d="M602 446.32 L602 753.68" stroke-width="43.5"></path><path d="M660 542.51 L660 657.49" stroke-width="43.5"></path><path d="M718 341.06 L718 858.94" stroke-width="43.5"></path><path d="M776 268.33 L776 931.66" stroke-width="43.5"></path><path d="M834 340.31 L834 859.68" stroke-width="43.5"></path><path d="M892 358.69 L892 841.31" stroke-width="43.5"></path><path d="M950 434.54 L950 765.46" stroke-width="43.5"></path><path d="M1008 263.3 L1008 936.7" stroke-width="43.5"></path><path d="M1066 273.56 L1066 926.44" stroke-width="43.5"></path><path d="M1124 373.94 L1124 826.06" stroke-width="43.5"></path><path d="M1182 279.93 L1182 920.07" stroke-width="43.5"></path><path d="M1240 312.48 L1240 887.52" stroke-width="43.5"></path><path d="M1298 359.77 L1298 840.23" stroke-width="43.5"></path><path d="M1356 241.01 L1356 958.99" stroke-width="43.5"></path><path d="M1414 330 L1414 870" stroke-width="43.5"></path><path d="M1472 275.99 L1472 924.01" stroke-width="43.5"></path><path d="M1530 533.87 L1530 666.13" stroke-width="43.5"></path></g></g><defs><mask id="SvgjsMask5795"><rect width="1900" height="1200" fill="#ffffff"></rect></mask><linearGradient x1="950" y1="990" x2="950" y2="210" gradientUnits="userSpaceOnUse" id="SvgjsLinearGradient5796"><stop stop-color="rgba(8, 7, 7, 1)" offset="0.22"></stop><stop stop-color="rgba(188, 188, 188, 1)" offset="0.88"></stop></linearGradient></defs></svg>