<svg xmlns="http://www.w3.org/2000/svg" version="1.1" xmlns:xlink="http://www.w3.org/1999/xlink" xmlns:svgjs="http://svgjs.dev/svgjs" width="1900" height="1200" preserveAspectRatio="none" viewBox="0 0 1900 1200"><g mask="url(&quot;#SvgjsMask1737&quot;)" fill="none"><g transform="translate(0, 0)" stroke-linecap="round" stroke="url(&quot;#SvgjsRadialGradient1738&quot;)"><path d="M370 560.82 L370 639.18" stroke-width="43.5"></path><path d="M428 533.86 L428 666.14" stroke-width="43.5"></path><path d="M486 554.05 L486 645.95" stroke-width="43.5"></path><path d="M544 367.62 L544 832.38" stroke-width="43.5"></path><path d="M602 384.73 L602 815.27" stroke-width="43.5"></path><path d="M660 295.85 L660 904.15" stroke-width="43.5"></path><path d="M718 256.87 L718 943.13" stroke-width="43.5"></path><path d="M776 247.58 L776 952.41" stroke-width="43.5"></path><path d="M834 543.89 L834 656.11" stroke-width="43.5"></path><path d="M892 263.05 L892 936.95" stroke-width="43.5"></path><path d="M950 276.3 L950 923.7" stroke-width="43.5"></path><path d="M1008 322.18 L1008 877.83" stroke-width="43.5"></path><path d="M1066 294.15 L1066 905.85" stroke-width="43.5"></path><path d="M1124 536.63 L1124 663.37" stroke-width="43.5"></path><path d="M1182 287.65 L1182 912.35" stroke-width="43.5"></path><path d="M1240 465.57 L1240 734.43" stroke-width="43.5"></path><path d="M1298 248.73 L1298 951.27" stroke-width="43.5"></path><path d="M1356 463.69 L1356 736.31" stroke-width="43.5"></path><path d="M1414 310.44 L1414 889.56" stroke-width="43.5"></path><path d="M1472 265.65 L1472 934.35" stroke-width="43.5"></path><path d="M1530 268.55 L1530 931.45" stroke-width="43.5"></path></g></g><defs><mask id="SvgjsMask1737"><rect width="1900" height="1200" fill="#ffffff"></rect></mask><radialGradient cx="950" cy="600" r="730.35" gradientUnits="userSpaceOnUse" id="SvgjsRadialGradient1738"><stop stop-color="rgba(8, 7, 7, 1)" offset="0.22"></stop><stop stop-color="rgba(0, 0, 0, 0)" offset="0.88"></stop></radialGradient></defs></svg>